# xmcd
# 
# Track frame offsets:
#     150
#     15375
#     37837
#     52987
#     64762
#     81562
#     96375
#     117075
#     134737
#     146737
#     166912
#     182550
#     193762
#     207750
#     223537
#     240487
#     262762
#     278737
# 
# Disc length: 3873
# 
# Revision: 10
# Processed by: cddbd v1.5.2PL0 Copyright (c) Steve Scherf et al.
# Submitted via: fre:ac v1.0.17
# 
DISCID=fd0f1f12
DTITLE=Various Artist - Louisiana Spice: 25 Years Of Louisiana Music On Rounder Records - Country Disc
DYEAR=1995
DGENRE=Cajun
TTITLE0=The Balfa Brothers - J'ai vu le loup, le renard et la belette
TTITLE1=John Delafose and The Eunice Playboys - Pere et garçon zydeco
TTITLE2=Eddie LeJeune with D.L. Menard and Ken Smith - The Mistake I Made
TTITLE3=Jimmy C: Newman - Chere toute-toute
TTITLE4=Boozoo Chavis - Lula Lula Don't You Go To Bingo
TTITLE5=Le Trio Cadien (D.L. Menard, Eddie LeJeune, Ken Smith) - Bayou Pon Pon
TTITLE6=Beausoleil - Les flammes d'enfer
TTITLE7=Steve Riley and The Mamou Playboys - La Danse de Mardi Gras
TTITLE8=D.L. Menard with Ken Smith and Eddie LeJeune - Wildwood Flower
TTITLE9=Jo-El Sonnier - La valse de chere bébé
TTITLE10=Geno Delafose - C'est pas la peine brailler (There's No Need To Cry)
TTITLE11=Bruce Daigrepont - Laissez faire (Let It Be)
TTITLE12=David Doucet - T'en as eu
TTITLE13=Zachary Richard - Filé Gumbo
TTITLE14=Nathan and The Zydeco Cha Chas - Outside People
TTITLE15=Beau Jocque and The Zydeco Hi-Rollers - Give Him Cornbread
TTITLE16=Buckwheat Zydeco - Think It Over One More Time
TTITLE17=Li'l Brian and The Zydeco Travelers - Snap Bean
EXTD=
EXTT0=
EXTT1=
EXTT2=
EXTT3=
EXTT4=
EXTT5=
EXTT6=
EXTT7=
EXTT8=
EXTT9=
EXTT10=
EXTT11=
EXTT12=
EXTT13=
EXTT14=
EXTT15=
EXTT16=
EXTT17=
PLAYORDER=
